<?xml version="1.0" encoding="UTF-8"?>
<svg id="Livello_1" data-name="Livello 1" xmlns="http://www.w3.org/2000/svg" viewBox="0 0 100 100">
  <defs>
    <style>
      .cls-1 {
        fill: #313254;
      }
    </style>
  </defs>
  <g id="Oggetto_generativo" data-name="Oggetto generativo">
    <path class="cls-1" d="M85.28,90.29c-.06,0-.12,0-.18,0-3.89-.13-6.31-3.88-7.21-11.14l-.59-4.76-.41-2-.39,2.16-.63,4.62c-.24,1.75-.62,4.05-1.5,6.32-.7,1.82-1.88,3.08-3.43,3.66l-.87.62c-.83.59-1.98.4-2.57-.43-.59-.83-.4-1.98.43-2.57l1.09-.78c.16-.12.34-.2.53-.26.59-.18,1.06-.71,1.39-1.57.74-1.92,1.07-3.94,1.29-5.5l.64-4.66s0-.05.01-.08l2.12-11.59c.16-.87.91-1.5,1.79-1.51,0,0,.01,0,.02,0,.87,0,1.63.62,1.81,1.47l2.33,11.41s.02.1.02.14l.59,4.83c.61,4.96,1.95,7.84,3.67,7.9.01,0,.02,0,.03,0,1.4,0,2.38-3.2,2.63-6.39.24-3.08.51-6.58.42-10.07l-.21-8.99-1.77-19.32c-.09-1.01.65-1.91,1.67-2,1.01-.09,1.91.65,2,1.67l1.77,19.39s0,.08,0,.12l.21,9.05c.09,3.67-.19,7.27-.43,10.44-.48,6.24-2.76,9.79-6.28,9.79Z"/>
    <path class="cls-1" d="M64.11,28.26c-.48,0-.95-.23-1.25-.65-.48-.69-.32-1.64.37-2.12l2.43-1.71c.06-.04.13-.08.2-.12l5.22-2.6c.75-.37,1.67-.07,2.04.68.37.75.07,1.67-.68,2.04l-5.12,2.55-2.34,1.65c-.27.19-.57.28-.87.28Z"/>
    <path class="cls-1" d="M81.54,24.97c-.37,0-.74-.1-1.08-.3-.98-.6-1.3-1.88-.7-2.86l1.76-2.91c1.08-2.24,1.74-5.24,1.73-7.85,0-1.64-.3-4.59-2.21-5.89-2.49-1.7-5.98-1.22-7.79,1.07-2.26,2.86-3.44,8.91-1.51,12.15l1.8,2.97c.6.98.28,2.26-.7,2.86-.98.6-2.26.28-2.86-.7l-1.81-2.98c-2.93-4.91-1.39-12.84,1.82-16.89,3.14-3.96,9.15-4.82,13.41-1.92,2.62,1.78,4.01,5,4.03,9.31.01,3.29-.8,6.94-2.19,9.78-.03.06-.06.11-.09.16l-1.81,2.99c-.39.65-1.08,1-1.78,1Z"/>
    <path class="cls-1" d="M76.99,26.29c-.83,0-1.73-.16-2.73-.57l-3.3-1.38c-1.06-.44-1.56-1.66-1.12-2.73.44-1.06,1.66-1.56,2.73-1.12l3.29,1.38c1.14.47,1.85.23,3.34-.36.52-.21,1.11-.44,1.76-.63,1.1-.32,2.26.31,2.59,1.41.32,1.1-.31,2.26-1.41,2.59-.47.14-.92.32-1.4.51-1.05.42-2.27.9-3.74.9Z"/>
    <path class="cls-1" d="M91.54,63.6c-.87,0-1.69-.55-1.98-1.43-.36-1.09.23-2.27,1.32-2.63l1.51-.5c1.03-.34,1.68-.57,1.98-1.02.88-1.31,1.22-4.73.98-7.1l-1.16-11.52c-.25-2.47-.82-4.73-1.81-7.12-1.14-2.77-3.21-4.67-6.15-5.65l-5.35-1.76c-1.09-.36-1.69-1.54-1.33-2.63.36-1.09,1.54-1.69,2.63-1.33l5.36,1.77c4.09,1.36,7.09,4.13,8.69,8.01,1.13,2.74,1.82,5.45,2.1,8.29l1.16,11.52c.22,2.22.16,7.14-1.68,9.85-1.11,1.64-2.78,2.19-4.12,2.64l-1.51.5c-.22.07-.44.11-.66.11Z"/>
    <path class="cls-1" d="M43.15,100c-.28,0-.57-.02-.86-.06-3.95-.55-6.04-5.08-6.37-9.33l-.51-6.57s0-.09,0-.14l-.06-9.76c-.01-1.87.01-3.28.17-4.97l1.7-18.07c.1-1.1,1.08-1.91,2.18-1.81,1.1.1,1.91,1.08,1.81,2.18l-1.7,18.07c-.14,1.52-.17,2.82-.16,4.57l.06,9.69.5,6.49c.2,2.56,1.37,5.46,2.93,5.67,1.22.17,2.45-.68,2.92-2.02.19-.53.36-1.06.54-1.58.5-1.48,1.01-3,1.7-4.54.28-.61.41-1.34.4-2.16l-.13-12.25c-.01-1.11.88-2.01,1.98-2.02,1.11-.02,2.01.88,2.02,1.98l.13,12.26c.01,1.41-.24,2.7-.75,3.85-.61,1.36-1.07,2.73-1.56,4.17-.18.54-.36,1.08-.56,1.63-1,2.84-3.6,4.72-6.39,4.72Z"/>
    <path class="cls-1" d="M57.4,99.71c-1.47,0-3.16-.54-4.34-1.9-1.03-1.18-1.44-2.51-1.79-3.68-.14-.45-.27-.87-.42-1.26l-1.37-3.47c-.51-1.28-.75-2.58-.73-3.88.02-.93.78-1.67,1.71-1.65.93.02,1.67.79,1.65,1.72-.02.86.14,1.7.49,2.57l1.37,3.47c.2.52.36,1.02.51,1.51.3.98.56,1.82,1.11,2.46.56.65,1.58.85,2.24.7,3.66-.79,3.52-8.52,3.44-13.63-.02-1.11-.04-2.15-.02-3.08l-.22-5.72s0-.07,0-.11l.12-4.43-1.39-18.89c-.07-.93.63-1.73,1.55-1.8.93-.07,1.73.63,1.8,1.55l1.4,18.97c0,.06,0,.11,0,.17l-.12,4.46.22,5.72s0,.06,0,.09c-.02.88,0,1.92.02,3.01.05,3.17.12,6.76-.5,9.87-.81,4.09-2.69,6.48-5.6,7.11-.35.08-.74.12-1.14.12Z"/>
    <path class="cls-1" d="M35.86,72.95c-.2,0-.41-.03-.62-.1l-2.61-.85c-.09-.03-.18-.07-.27-.11-1.85-.91-3.12-2.33-3.67-4.09-1.03-3.31-.9-6.56-.61-9.58l.84-8.66c.32-3.3,1.07-6.37,2.29-9.36,1.62-3.98,4.54-6.77,8.45-8.07l5.25-1.74c1.05-.35,2.18.22,2.53,1.27s-.22,2.18-1.27,2.53l-5.25,1.74c-2.8.94-4.82,2.88-6.01,5.78-1.07,2.63-1.73,5.32-2.01,8.24l-.84,8.66c-.25,2.6-.37,5.37.45,8,.21.68.7,1.21,1.5,1.63l2.46.8c1.05.34,1.63,1.47,1.29,2.52-.27.85-1.06,1.39-1.9,1.39Z"/>
    <path class="cls-1" d="M45.55,34.3c-.72,0-1.41-.39-1.77-1.06l-.29-.54c-.64-1.19-1.3-2.43-1.87-3.87-1.93-4.93-2.96-13.69,2.13-17.62,2.03-1.57,4.7-2.25,7.34-1.88,2.6.37,4.84,1.68,6.32,3.71,2.94,4.01,4.49,11.4,2.1,16l-1.79,3.44c-.51.98-1.72,1.36-2.7.86-.98-.51-1.36-1.72-.86-2.7l1.79-3.44c1.31-2.54.82-8.24-1.78-11.79-.84-1.14-2.14-1.89-3.65-2.11-1.57-.22-3.15.17-4.33,1.08-3.11,2.4-2.34,9.17-.85,12.99.48,1.22,1.06,2.3,1.67,3.44l.29.55c.52.98.15,2.19-.83,2.71-.3.16-.62.24-.94.24Z"/>
    <path class="cls-1" d="M50.18,35.44c-.97,0-2.02-.2-3.2-.72l-1.94-.5c-1.07-.27-1.72-1.37-1.44-2.44.27-1.07,1.36-1.72,2.44-1.44l2.11.54c.12.03.23.07.35.12,1.66.77,2.61.41,4.61-.46.66-.29,1.4-.62,2.22-.89,1.05-.35,2.18.22,2.53,1.27.35,1.05-.22,2.18-1.27,2.53-.64.21-1.27.49-1.87.75-1.34.59-2.79,1.23-4.53,1.23Z"/>
    <path class="cls-1" d="M64.91,71.96c-.22,0-.43,0-.65-.03-1.1-.09-1.93-1.05-1.84-2.15.09-1.1,1.05-1.93,2.15-1.84,1.05.08,1.99-.2,2.71-.81.75-.65,1.22-1.64,1.31-2.8.24-3.23-.08-6.38-.54-10.16l-.91-7.54c-.39-3.25-1.27-5.84-2.68-7.91-1.2-1.76-3.34-2.64-5.62-3.58-1.31-.54-2.66-1.1-3.92-1.85-.95-.57-1.25-1.8-.68-2.75.57-.95,1.8-1.25,2.75-.68,1,.6,2.16,1.08,3.38,1.59,2.59,1.07,5.53,2.28,7.4,5.03,1.78,2.61,2.87,5.78,3.34,9.69l.91,7.54c.48,4,.83,7.35.56,10.94-.17,2.23-1.12,4.2-2.69,5.54-1.36,1.17-3.11,1.79-4.97,1.79Z"/>
    <path class="cls-1" d="M14.78,92.25c-1.15,0-2.24-.38-3.13-1.11-3.32-2.71-3.69-9.32-3.8-16.42-.01-.65-.02-1.27-.03-1.82,0-.03,0-.06,0-.1l.22-10s0-.08,0-.12l1.6-19.88c.09-1.1,1.05-1.93,2.16-1.84,1.1.09,1.92,1.05,1.84,2.16l-1.6,19.82-.21,9.89c.01.56.02,1.17.03,1.82.04,2.47.09,5.54.47,8.22.51,3.58,1.39,4.77,1.87,5.16.21.17.45.23.74.2.47-.06.97-.37,1.29-.82,1.21-1.65,1.62-3.91,1.85-5.69l.77-6.11s.01-.1.02-.15l1.93-9.5c.18-.91.97-1.57,1.9-1.6.93-.03,1.75.58,2,1.48l2.15,7.96c.02.07.03.14.04.21l1.19,7.47c.28,1.76.86,5.41,2.38,5.87.21.07.42.17.6.3l1.2.88c.89.66,1.08,1.91.43,2.8-.66.89-1.91,1.08-2.8.43l-.96-.71c-3.59-1.38-4.34-6.09-4.8-8.95l-1.11-6.96-.21,1.03-.76,6.03c-.29,2.26-.84,5.17-2.59,7.56-.98,1.34-2.45,2.23-4.02,2.43-.22.03-.44.04-.66.04Z"/>
    <path class="cls-1" d="M8.43,65.25c-.19,0-.39-.03-.58-.09l-.85-.26c-.2-.06-.43-.12-.67-.18-1.05-.27-2.48-.64-3.56-1.81-3.21-3.52-2.45-10.44-1.83-16,.08-.71.15-1.38.21-2,.41-4.25.96-8.71,2.7-12.52,2.01-4.39,5.37-7.16,10.01-8.23l3.21-1.38c1.02-.44,2.19.03,2.63,1.05.44,1.02-.03,2.19-1.05,2.63l-3.38,1.45c-.12.05-.24.09-.36.12-7.65,1.68-8.95,8.81-9.77,17.26-.06.64-.14,1.33-.22,2.05-.47,4.25-1.18,10.68.81,12.86.27.29.91.46,1.59.63.27.07.55.14.83.23l.84.25c1.06.32,1.66,1.44,1.34,2.5-.26.87-1.06,1.43-1.92,1.43Z"/>
    <path class="cls-1" d="M17.87,26.64c-.76,0-1.49-.44-1.83-1.18l-1.47-3.24c-1.13-2.47-1.75-5.08-1.96-8.23-.2-3.03.33-5.71,1.53-7.76,1.44-2.46,3.79-3.97,6.81-4.36,2.9-.48,6.04.67,8.63,3.15.12.11.22.24.31.37,1.98,3.13,3.1,6.46,3.34,9.91,0,0,0,.02,0,.03.15,2.7-.4,5.07-1.69,7.24l-1.52,2.59c-.56.95-1.79,1.27-2.74.71-.95-.56-1.27-1.79-.71-2.74l1.53-2.6c.87-1.47,1.24-3.1,1.14-4.98-.19-2.69-1.06-5.32-2.6-7.81-1.63-1.5-3.46-2.2-5.05-1.93-.03,0-.06,0-.09.01-1.81.23-3.08,1.02-3.9,2.41-.79,1.35-1.14,3.25-.99,5.48.17,2.65.68,4.82,1.6,6.83l1.47,3.24c.46,1.01.01,2.19-1,2.65-.27.12-.55.18-.83.18Z"/>
    <path class="cls-1" d="M22.83,28.2c-1.22,0-2.22-.36-3.02-.65-.19-.07-.39-.14-.59-.2l-2.01-.65c-1.14-.37-1.76-1.58-1.4-2.72.37-1.14,1.58-1.76,2.72-1.4l2.02.65c.25.08.49.17.73.25.61.22,1.1.4,1.56.4,0,0,0,0,.01,0,.86,0,1.69-.4,2.64-.86.67-.32,1.37-.66,2.17-.91,1.14-.36,2.35.27,2.72,1.41.36,1.14-.27,2.35-1.41,2.72-.51.16-1.04.42-1.6.69-1.25.6-2.66,1.28-4.49,1.29-.01,0-.03,0-.04,0Z"/>
    <path class="cls-1" d="M35.57,29.88c-.27,0-.54-.07-.79-.21l-7.27-4.12c-.77-.44-1.04-1.41-.6-2.18.44-.77,1.41-1.04,2.18-.6l7.27,4.12c.77.44,1.04,1.41.6,2.18-.3.52-.84.81-1.4.81Z"/>
  </g>
</svg>