<?xml version="1.0" encoding="UTF-8"?>
<svg id="Livello_1" data-name="Livello 1" xmlns="http://www.w3.org/2000/svg" viewBox="0 0 100 100">
  <defs>
    <style>
      .cls-1 {
        fill: #2f3156;
      }

      .cls-2 {
        fill: #313454;
      }

      .cls-3 {
        fill: #272f53;
      }

      .cls-4 {
        fill: #2f3456;
      }

      .cls-5 {
        fill: #262b51;
      }

      .cls-6 {
        fill: #2b3051;
      }

      .cls-7 {
        fill: #2e375a;
      }

      .cls-8 {
        fill: #333759;
      }

      .cls-9 {
        fill: #2d3154;
      }
    </style>
  </defs>
  <path class="cls-9" d="M22.78.12c1.9.89,2.75,4.82,1.7,8.23-.51,1.64-1.45.86-2.2.64-1.37-.41-1.4-1.86-1.68-3.26l-.64-3.19c-.17-.84,1.44-3.06,2.82-2.41Z"/>
  <path class="cls-2" d="M52.62,21.45c1.66,1.66-1.81,4.03-3.43,4.04-2.19.02-6.09.72-5.73-3.7,2.44.09,6.19-2.18,9.17-.34Z"/>
  <path class="cls-9" d="M43.43,7.28c.49,1.98-3.55,6.26-5.27,6.15-2.54-1.23-.87-4.15.33-5.49.94-1.05,3.89-3.25,4.95-.67Z"/>
  <path class="cls-8" d="M46.61,36.16l2.2,1.54c.49.34.99,1.88-.72,2.43-2.54.81-7.55-1.76-6.83-4.98.61-2.73,4.09.13,5.35,1.01Z"/>
  <path class="cls-7" d="M22.92,43.95c1.12.86-.32,6.96-3.34,8.28-1.76-2.65-1.54-6.69.7-8.82.94-.9,2.02.06,2.64.54Z"/>
  <path class="cls-6" d="M12.66,13.09c.54,1.22-.63,2.34-1.28,2.59-1.64.65-6.32-2.55-5.79-6.72,3.17.51,5.94,1.55,7.07,4.13Z"/>
  <path class="cls-3" d="M12.61,38.8c-.57,2.29-3.18,4.19-5.18,4.34-1.33.11-2.27-1.17-1.91-1.65l1.74-2.3c.94-1.25,1.66-1.54,2.59-2.44.99-.95,3.12.6,2.76,2.05Z"/>
  <path class="cls-4" d="M36.71,46.51l1.08,2.63c.24.58-1.13,1.99-1.89,1.87-2.11-1.53-4.92-4.37-3.72-7.37.44-1.11,2.26-1.17,2.73-.53.59.81,1.11,1.69,1.81,3.4Z"/>
  <path class="cls-5" d="M8.18,25.44c.74,2.35-2.4,2.83-3.59,2.85-1.27.02-4.32.11-3.86-2.6.42-2.5,6.61-2.92,7.45-.25Z"/>
  <path class="cls-1" d="M92.58,68.23c-5.26.25-10.04-1.59-14.51-3.96-.52-.24-.86-.26-1.55-.18-2.34.42-5.03,1.89-7.48,2.76-4.22,1.69-9.47,2.44-14.06,1.16-2.91-.68-5.51-2.3-8.18-3.53-5.86-2.6-12.79-2.71-18.56.11-.77.26-1.56.69-2.36.95-1.16.24-2.77.78-3.22.68-.77-.15-1.96-1.07-2.03-1.95,5.78-6.57,15.62-8.08,23.79-5.97,2.26.58,4.43,1.44,6.49,2.51,2.73,1.54,5.87,2.78,8.95,2.76,5.67.24,10.31-3.41,15.92-4.51,1.41-.24,3.31-.04,4.67.72,1.46.77,3.02,1.51,4.53,2.08,2.44.91,4.92,1.41,7.34,1.29h0c.68-.36,1.5-.35,2.2-.03.52.25,1.1.51,1.3.55.03-.01.06-.03.11-.05,2.25-.94,3.91,2.35,1.76,3.49-1.2.64-3,1.03-5.13,1.11h0Z"/>
  <path class="cls-1" d="M73.79,99.07c-6.96,2.18-14.69.31-20.66-3.44,0,0,.55.26.55.26l-5.48-1.97c-2.95-.02-5.07.52-8.06-1.06,1.85-3.72,6.22-4.89,10.07-4.53l5.48,1.97c4.97,2.98,10.79,4.85,16.42,3.07,1.66-.33,4.89-2.72,6.42-1.15.15.71,1.99,1.55,2.05,2.21-1.59,2.04-4.23,3.81-6.77,4.63h0Z"/>
  <path class="cls-1" d="M34.83,74.7c8.34-2.42,17.05.28,24.54,3.71,5.39,2.16,10.5-.32,16.08-1.99,3.23-.72,10.12.49,12.14,3.65.61.96-.04,2.23-1.17,2.33-1.19.11-2.82.17-4.34-.06-.59-.09-1.16-.23-1.69-.43-.98-.37-2.05-.37-2.99.09-.06.03-.12.06-.19.09-3.22,1-6.68,2.33-10.6,2.88-2.97.43-6.4.25-9.29-.99-6.59-2.94-13.83-5.59-20.91-3.56-1.93.35-8.56,4.38-9.25,1.95-.17-.57-.11-1.46.22-2.78,1.09-1,2.25-1.9,3.47-2.7,1.23-.81,2.65-1.59,3.97-2.18h0Z"/>
  <path class="cls-1" d="M25.65,40.11c-2.01,0-4.03-.44-5.9-1.33-3.91-1.85-6.78-5.07-8.06-9.05-1.27-3.94-.83-8.17,1.24-11.92,3.27-5.92,8.36-8.16,15.11-6.64h0c4.09.92,7.5,3.33,9.61,6.79,2.06,3.38,2.66,7.51,1.66,11.35-1.1,4.23-3.95,7.69-7.82,9.5-1.86.87-3.85,1.3-5.84,1.3ZM24.15,17.61c-2.31,0-3.83,1.09-5.18,3.54-1.14,2.06-1.39,4.36-.71,6.46.69,2.15,2.27,3.9,4.45,4.93,1.89.89,3.97.9,5.87.02,2-.93,3.48-2.75,4.06-4.98.53-2.04.21-4.23-.88-6.02-1.12-1.85-2.98-3.14-5.23-3.65-.88-.2-1.66-.3-2.37-.3Z"/>
</svg>